<?xml version="1.0" standalone="no"?>
<!DOCTYPE svg PUBLIC "-//W3C//DTD SVG 20010904//EN"
 "http://www.w3.org/TR/2001/REC-SVG-20010904/DTD/svg10.dtd">
<svg version="1.0" xmlns="http://www.w3.org/2000/svg"
 width="1000.000000pt" height="1000.000000pt" viewBox="0 0 1000.000000 1000.000000"
 preserveAspectRatio="xMidYMid meet">
<metadata>
Created by potrace 1.11, written by Peter Selinger 2001-2013
</metadata>
<g transform="translate(0.000000,1000.000000) scale(0.100000,-0.100000)"
fill="#000000" stroke="none">
<path d="M300 7351 c0 -5 9 -33 19 -63 38 -105 138 -388 226 -638 20 -58 43
-121 50 -140 8 -19 58 -159 111 -310 53 -151 119 -338 146 -415 27 -77 54
-151 58 -165 4 -14 27 -77 50 -140 23 -63 44 -124 47 -135 2 -11 9 -29 14 -40
5 -11 23 -60 39 -110 17 -49 42 -119 55 -155 13 -36 51 -141 84 -235 153 -436
250 -710 331 -940 49 -137 99 -281 113 -320 28 -77 239 -673 282 -797 l28 -78
683 0 683 0 -19 53 c-10 28 -39 111 -65 182 -26 72 -55 155 -65 185 -10 30
-39 114 -65 185 -66 184 -164 462 -182 515 -8 25 -19 54 -23 65 -5 11 -16 40
-24 65 -8 25 -24 70 -35 100 -73 205 -181 515 -181 522 0 12 415 10 486 -3
258 -46 385 -199 554 -670 203 -563 246 -672 341 -863 57 -114 141 -250 191
-309 l23 -27 726 2 725 3 -8 30 c-6 23 -21 37 -65 60 -32 17 -89 62 -128 100
-60 59 -80 89 -132 195 -66 134 -87 188 -247 640 -148 419 -184 504 -286 669
-148 241 -313 398 -520 494 -73 33 -214 78 -295 94 -22 4 -42 8 -45 8 -3 1
-36 5 -75 9 -72 9 -120 24 -80 26 11 1 29 4 40 6 11 3 30 7 42 9 12 2 53 13
90 25 214 70 341 194 394 385 8 31 14 101 14 185 0 155 -6 198 -51 365 -55
202 -209 534 -286 619 -10 11 -18 23 -18 28 0 27 -228 269 -325 344 -196 151
-446 269 -695 327 -271 64 -273 64 -1572 66 -711 1 -1158 -2 -1158 -8z m2176
-894 c241 -54 391 -188 502 -447 52 -123 71 -213 68 -315 -4 -130 -35 -191
-126 -249 -81 -52 -136 -61 -374 -61 l-189 0 -24 70 c-13 39 -28 81 -32 95 -5
14 -59 167 -121 340 -61 173 -133 377 -160 453 l-49 138 217 -4 c147 -3 240
-10 288 -20z"/>
<path d="M4510 7352 c0 -8 144 -422 180 -517 10 -27 73 -205 140 -395 67 -190
135 -382 151 -427 39 -111 118 -334 179 -508 52 -146 91 -259 120 -340 16 -44
54 -152 85 -240 31 -88 67 -189 80 -225 13 -36 39 -110 58 -165 20 -55 74
-210 122 -345 47 -135 102 -290 122 -345 19 -55 41 -116 48 -135 13 -34 73
-205 212 -600 118 -336 153 -435 153 -437 0 -2 308 -3 685 -3 l684 0 -45 128
c-25 70 -73 204 -106 297 -129 367 -160 454 -194 550 -20 55 -49 138 -65 185
-17 47 -43 121 -59 165 -16 44 -47 134 -70 200 -22 66 -45 129 -50 140 -10 23
-90 254 -90 261 0 2 188 3 417 2 l416 -3 125 -350 c68 -192 153 -433 189 -535
36 -102 88 -248 115 -325 27 -77 56 -158 63 -180 8 -22 33 -92 55 -155 23 -63
62 -175 88 -247 l46 -133 684 0 c648 0 684 1 677 18 -4 9 -33 91 -65 182 -32
91 -82 230 -110 310 -29 80 -56 156 -60 170 -4 14 -31 88 -58 165 -27 77 -80
226 -117 330 -101 288 -126 358 -135 380 -4 11 -31 88 -60 170 -64 186 -106
305 -130 370 -10 28 -38 104 -60 170 -23 66 -64 181 -90 255 -27 74 -76 214
-110 310 -34 96 -72 204 -85 240 -13 36 -53 148 -89 250 -35 102 -90 257 -121
345 -31 88 -95 268 -142 400 -46 132 -112 317 -144 410 -33 94 -64 180 -69
193 l-10 22 -680 0 c-374 0 -680 -3 -680 -6 0 -4 27 -83 61 -178 33 -94 74
-209 90 -256 17 -47 34 -94 39 -105 11 -28 64 -178 66 -190 1 -5 23 -68 49
-140 26 -71 73 -204 105 -295 32 -91 82 -230 110 -310 28 -80 58 -163 66 -185
7 -22 14 -43 14 -48 0 -4 -187 -6 -417 -5 l-416 3 -40 110 c-49 139 -153 433
-177 505 -11 30 -38 107 -60 170 -23 63 -68 190 -101 283 -92 260 -175 495
-202 572 l-25 70 -681 3 c-375 1 -681 -2 -681 -6z"/>
</g>
</svg>
